<svg width="73" height="73" viewBox="0 0 73 73" fill="none" xmlns="http://www.w3.org/2000/svg">
<path fill-rule="evenodd" clip-rule="evenodd" d="M0 52.3925V60.8332H9.125V42.4311C8.36458 42.6846 7.62951 42.9634 6.91979 43.2675C6.26076 43.5717 5.57639 43.9012 4.86667 44.2561C3.34583 45.0165 2.15451 46.1318 1.29271 47.6019C0.430903 49.0721 0 50.6689 0 52.3925ZM12.1667 52.3165V60.8332H60.8333V52.3165C60.8333 50.5929 60.3771 49.0214 59.4646 47.6019C58.6028 46.1318 57.4368 45.0165 55.9667 44.2561C52.8236 42.6846 49.6299 41.5186 46.3854 40.7582C43.141 39.9471 39.8458 39.5415 36.5 39.5415C33.1542 39.5415 29.859 39.9471 26.6146 40.7582C23.3701 41.5186 20.1764 42.6846 17.0333 44.2561C15.5632 45.0165 14.3719 46.1318 13.4594 47.6019C12.5976 49.0214 12.1667 50.5929 12.1667 52.3165ZM54.75 54.7498H18.25V52.3165C18.25 51.7589 18.3767 51.2519 18.6302 50.7957C18.9344 50.3394 19.3146 49.9846 19.7708 49.7311C22.5083 48.3623 25.2712 47.3484 28.0594 46.6894C30.8476 45.9797 33.6611 45.6248 36.5 45.6248C39.3389 45.6248 42.1524 45.9797 44.9406 46.6894C47.7288 47.3484 50.4917 48.3623 53.2292 49.7311C53.6854 49.9846 54.0403 50.3394 54.2937 50.7957C54.5979 51.2519 54.75 51.7589 54.75 52.3165V54.7498ZM27.9073 32.9259C30.2899 35.3085 33.1542 36.4998 36.5 36.4998C39.8458 36.4998 42.7101 35.3085 45.0927 32.9259C47.4753 30.5432 48.6667 27.679 48.6667 24.3332C48.6667 20.9873 47.4753 18.1231 45.0927 15.7405C42.7101 13.3578 39.8458 12.1665 36.5 12.1665C33.1542 12.1665 30.2899 13.3578 27.9073 15.7405C25.5247 18.1231 24.3333 20.9873 24.3333 24.3332C24.3333 27.679 25.5247 30.5432 27.9073 32.9259ZM40.7583 28.6675C39.5924 29.8335 38.1729 30.4165 36.5 30.4165C34.8271 30.4165 33.3823 29.8335 32.1656 28.6675C30.9997 27.4509 30.4167 26.0061 30.4167 24.3332C30.4167 22.6603 30.9997 21.2408 32.1656 20.0748C33.3823 18.8582 34.8271 18.2498 36.5 18.2498C38.1729 18.2498 39.5924 18.8582 40.7583 20.0748C41.975 21.2408 42.5833 22.6603 42.5833 24.3332C42.5833 26.0061 41.975 27.4509 40.7583 28.6675ZM54.3698 36.88C56.1441 38.6544 58.2986 39.5415 60.8333 39.5415C63.368 39.5415 65.5226 38.6544 67.2969 36.88C69.0712 35.1057 69.9583 32.9512 69.9583 30.4165C69.9583 27.8818 69.0712 25.7273 67.2969 23.953C65.5226 22.1787 63.368 21.2915 60.8333 21.2915C58.2986 21.2915 56.1441 22.1787 54.3698 23.953C52.5955 25.7273 51.7083 27.8818 51.7083 30.4165C51.7083 32.9512 52.5955 35.1057 54.3698 36.88ZM62.9625 32.6217C62.4049 33.1794 61.6951 33.4582 60.8333 33.4582C59.9715 33.4582 59.2365 33.1794 58.6281 32.6217C58.0705 32.0134 57.7917 31.2783 57.7917 30.4165C57.7917 29.5547 58.0705 28.845 58.6281 28.2873C59.2365 27.679 59.9715 27.3748 60.8333 27.3748C61.6951 27.3748 62.4049 27.679 62.9625 28.2873C63.5708 28.845 63.875 29.5547 63.875 30.4165C63.875 31.2783 63.5708 32.0134 62.9625 32.6217ZM63.875 42.4311V60.8332H73V52.3925C73 50.6689 72.5691 49.0721 71.7073 47.6019C70.8455 46.1318 69.6542 45.0165 68.1333 44.2561C67.4236 43.9012 66.7139 43.5717 66.0042 43.2675C65.3451 42.9634 64.6354 42.6846 63.875 42.4311Z" fill="black"/>
<path fill-rule="evenodd" clip-rule="evenodd" d="M12.1667 39.5415C9.63194 39.5415 7.47743 38.6544 5.70312 36.88C3.92882 35.1057 3.04167 32.9512 3.04167 30.4165C3.04167 27.8818 3.92882 25.7273 5.70312 23.953C7.47743 22.1787 9.63194 21.2915 12.1667 21.2915C14.7014 21.2915 16.8559 22.1787 18.6302 23.953C20.4045 25.7273 21.2917 27.8818 21.2917 30.4165C21.2917 32.9512 20.4045 35.1057 18.6302 36.88C16.8559 38.6544 14.7014 39.5415 12.1667 39.5415ZM14.2958 32.6217C13.7382 33.1794 13.0285 33.4582 12.1667 33.4582C11.3049 33.4582 10.5698 33.1794 9.96146 32.6217C9.40382 32.0134 9.125 31.2783 9.125 30.4165C9.125 29.5547 9.40382 28.845 9.96146 28.2873C10.5698 27.679 11.3049 27.3748 12.1667 27.3748C13.0285 27.3748 13.7382 27.679 14.2958 28.2873C14.9042 28.845 15.2083 29.5547 15.2083 30.4165C15.2083 31.2783 14.9042 32.0134 14.2958 32.6217Z" fill="black"/>
<path d="M18.25 54.7498H54.75V52.3165C54.75 51.7589 54.5979 51.2519 54.2937 50.7957C54.0403 50.3394 53.6854 49.9846 53.2292 49.7311C50.4917 48.3623 47.7288 47.3484 44.9406 46.6894C42.1524 45.9797 39.3389 45.6248 36.5 45.6248C33.6611 45.6248 30.8476 45.9797 28.0594 46.6894C25.2712 47.3484 22.5083 48.3623 19.7708 49.7311C19.3146 49.9846 18.9344 50.3394 18.6302 50.7957C18.3767 51.2519 18.25 51.7589 18.25 52.3165V54.7498Z" fill="black"/>
<path d="M36.5 30.4165C38.1729 30.4165 39.5924 29.8335 40.7583 28.6675C41.975 27.4509 42.5833 26.0061 42.5833 24.3332C42.5833 22.6603 41.975 21.2408 40.7583 20.0748C39.5924 18.8582 38.1729 18.2498 36.5 18.2498C34.8271 18.2498 33.3823 18.8582 32.1656 20.0748C30.9997 21.2408 30.4167 22.6603 30.4167 24.3332C30.4167 26.0061 30.9997 27.4509 32.1656 28.6675C33.3823 29.8335 34.8271 30.4165 36.5 30.4165Z" fill="black"/>
<path d="M12.1667 33.4582C13.0285 33.4582 13.7382 33.1794 14.2958 32.6217C14.9042 32.0134 15.2083 31.2783 15.2083 30.4165C15.2083 29.5547 14.9042 28.845 14.2958 28.2873C13.7382 27.679 13.0285 27.3748 12.1667 27.3748C11.3049 27.3748 10.5698 27.679 9.96146 28.2873C9.40382 28.845 9.125 29.5547 9.125 30.4165C9.125 31.2783 9.40382 32.0134 9.96146 32.6217C10.5698 33.1794 11.3049 33.4582 12.1667 33.4582Z" fill="black"/>
<path d="M60.8333 33.4582C61.6951 33.4582 62.4049 33.1794 62.9625 32.6217C63.5708 32.0134 63.875 31.2783 63.875 30.4165C63.875 29.5547 63.5708 28.845 62.9625 28.2873C62.4049 27.679 61.6951 27.3748 60.8333 27.3748C59.9715 27.3748 59.2365 27.679 58.6281 28.2873C58.0705 28.845 57.7917 29.5547 57.7917 30.4165C57.7917 31.2783 58.0705 32.0134 58.6281 32.6217C59.2365 33.1794 59.9715 33.4582 60.8333 33.4582Z" fill="black"/>
</svg>
