<svg width="60" height="60" viewBox="0 0 60 60" fill="none" xmlns="http://www.w3.org/2000/svg">
<path fill-rule="evenodd" clip-rule="evenodd" d="M0 43.0625V50H7.5V34.875C6.875 35.0833 6.27083 35.3125 5.6875 35.5625C5.14583 35.8125 4.58333 36.0833 4 36.375C2.75 37 1.77083 37.9167 1.0625 39.125C0.354167 40.3333 0 41.6458 0 43.0625ZM10 43V50H50V43C50 41.5833 49.625 40.2917 48.875 39.125C48.1667 37.9167 47.2083 37 46 36.375C43.4167 35.0833 40.7917 34.125 38.125 33.5C35.4583 32.8333 32.75 32.5 30 32.5C27.25 32.5 24.5417 32.8333 21.875 33.5C19.2083 34.125 16.5833 35.0833 14 36.375C12.7917 37 11.8125 37.9167 11.0625 39.125C10.3542 40.2917 10 41.5833 10 43ZM45 45H15V43C15 42.5417 15.1042 42.125 15.3125 41.75C15.5625 41.375 15.875 41.0833 16.25 40.875C18.5 39.75 20.7708 38.9167 23.0625 38.375C25.3542 37.7917 27.6667 37.5 30 37.5C32.3333 37.5 34.6458 37.7917 36.9375 38.375C39.2292 38.9167 41.5 39.75 43.75 40.875C44.125 41.0833 44.4167 41.375 44.625 41.75C44.875 42.125 45 42.5417 45 43V45ZM22.9375 27.0625C24.8958 29.0208 27.25 30 30 30C32.75 30 35.1042 29.0208 37.0625 27.0625C39.0208 25.1042 40 22.75 40 20C40 17.25 39.0208 14.8958 37.0625 12.9375C35.1042 10.9792 32.75 10 30 10C27.25 10 24.8958 10.9792 22.9375 12.9375C20.9792 14.8958 20 17.25 20 20C20 22.75 20.9792 25.1042 22.9375 27.0625ZM33.5 23.5625C32.5417 24.5208 31.375 25 30 25C28.625 25 27.4375 24.5208 26.4375 23.5625C25.4792 22.5625 25 21.375 25 20C25 18.625 25.4792 17.4583 26.4375 16.5C27.4375 15.5 28.625 15 30 15C31.375 15 32.5417 15.5 33.5 16.5C34.5 17.4583 35 18.625 35 20C35 21.375 34.5 22.5625 33.5 23.5625ZM44.6875 30.3125C46.1458 31.7708 47.9167 32.5 50 32.5C52.0833 32.5 53.8542 31.7708 55.3125 30.3125C56.7708 28.8542 57.5 27.0833 57.5 25C57.5 22.9167 56.7708 21.1458 55.3125 19.6875C53.8542 18.2292 52.0833 17.5 50 17.5C47.9167 17.5 46.1458 18.2292 44.6875 19.6875C43.2292 21.1458 42.5 22.9167 42.5 25C42.5 27.0833 43.2292 28.8542 44.6875 30.3125ZM51.75 26.8125C51.2917 27.2708 50.7083 27.5 50 27.5C49.2917 27.5 48.6875 27.2708 48.1875 26.8125C47.7292 26.3125 47.5 25.7083 47.5 25C47.5 24.2917 47.7292 23.7083 48.1875 23.25C48.6875 22.75 49.2917 22.5 50 22.5C50.7083 22.5 51.2917 22.75 51.75 23.25C52.25 23.7083 52.5 24.2917 52.5 25C52.5 25.7083 52.25 26.3125 51.75 26.8125ZM52.5 34.875V50H60V43.0625C60 41.6458 59.6458 40.3333 58.9375 39.125C58.2292 37.9167 57.25 37 56 36.375C55.4167 36.0833 54.8333 35.8125 54.25 35.5625C53.7083 35.3125 53.125 35.0833 52.5 34.875Z" fill="#3A3383" fill-opacity="0.7"/>
<path fill-rule="evenodd" clip-rule="evenodd" d="M10 32.5C7.91667 32.5 6.14583 31.7708 4.6875 30.3125C3.22917 28.8542 2.5 27.0833 2.5 25C2.5 22.9167 3.22917 21.1458 4.6875 19.6875C6.14583 18.2292 7.91667 17.5 10 17.5C12.0833 17.5 13.8542 18.2292 15.3125 19.6875C16.7708 21.1458 17.5 22.9167 17.5 25C17.5 27.0833 16.7708 28.8542 15.3125 30.3125C13.8542 31.7708 12.0833 32.5 10 32.5ZM11.75 26.8125C11.2917 27.2708 10.7083 27.5 10 27.5C9.29167 27.5 8.6875 27.2708 8.1875 26.8125C7.72917 26.3125 7.5 25.7083 7.5 25C7.5 24.2917 7.72917 23.7083 8.1875 23.25C8.6875 22.75 9.29167 22.5 10 22.5C10.7083 22.5 11.2917 22.75 11.75 23.25C12.25 23.7083 12.5 24.2917 12.5 25C12.5 25.7083 12.25 26.3125 11.75 26.8125Z" fill="#3A3383" fill-opacity="0.7"/>
<path d="M15 45H45V43C45 42.5417 44.875 42.125 44.625 41.75C44.4167 41.375 44.125 41.0833 43.75 40.875C41.5 39.75 39.2292 38.9167 36.9375 38.375C34.6458 37.7917 32.3333 37.5 30 37.5C27.6667 37.5 25.3542 37.7917 23.0625 38.375C20.7708 38.9167 18.5 39.75 16.25 40.875C15.875 41.0833 15.5625 41.375 15.3125 41.75C15.1042 42.125 15 42.5417 15 43V45Z" fill="#3A3383" fill-opacity="0.7"/>
<path d="M30 25C31.375 25 32.5417 24.5208 33.5 23.5625C34.5 22.5625 35 21.375 35 20C35 18.625 34.5 17.4583 33.5 16.5C32.5417 15.5 31.375 15 30 15C28.625 15 27.4375 15.5 26.4375 16.5C25.4792 17.4583 25 18.625 25 20C25 21.375 25.4792 22.5625 26.4375 23.5625C27.4375 24.5208 28.625 25 30 25Z" fill="#3A3383" fill-opacity="0.7"/>
<path d="M10 27.5C10.7083 27.5 11.2917 27.2708 11.75 26.8125C12.25 26.3125 12.5 25.7083 12.5 25C12.5 24.2917 12.25 23.7083 11.75 23.25C11.2917 22.75 10.7083 22.5 10 22.5C9.29167 22.5 8.6875 22.75 8.1875 23.25C7.72917 23.7083 7.5 24.2917 7.5 25C7.5 25.7083 7.72917 26.3125 8.1875 26.8125C8.6875 27.2708 9.29167 27.5 10 27.5Z" fill="#3A3383" fill-opacity="0.7"/>
<path d="M50 27.5C50.7083 27.5 51.2917 27.2708 51.75 26.8125C52.25 26.3125 52.5 25.7083 52.5 25C52.5 24.2917 52.25 23.7083 51.75 23.25C51.2917 22.75 50.7083 22.5 50 22.5C49.2917 22.5 48.6875 22.75 48.1875 23.25C47.7292 23.7083 47.5 24.2917 47.5 25C47.5 25.7083 47.7292 26.3125 48.1875 26.8125C48.6875 27.2708 49.2917 27.5 50 27.5Z" fill="#3A3383" fill-opacity="0.7"/>
</svg>
