<svg width="73" height="73" viewBox="0 0 73 73" fill="none" xmlns="http://www.w3.org/2000/svg">
<path d="M12.1665 59.8127C12.1665 57.7959 12.9677 55.8618 14.3937 54.4357C15.8198 53.0096 17.7539 52.2085 19.7707 52.2085H60.8332V6.5835H19.7707C17.7539 6.5835 15.8198 7.38465 14.3937 8.8107C12.9677 10.2368 12.1665 12.1709 12.1665 14.1877V59.8127Z" fill="black"/>
<path d="M12.1665 59.8127C12.1665 57.7959 12.9677 55.8618 14.3937 54.4357C15.8198 53.0096 17.7539 52.2085 19.7707 52.2085H60.8332V6.5835M12.1665 59.8127C12.1665 61.8294 12.9677 63.7636 14.3937 65.1896C15.8198 66.6157 17.7539 67.4168 19.7707 67.4168H60.8332V6.5835M12.1665 59.8127V14.1877C12.1665 12.1709 12.9677 10.2368 14.3937 8.8107C15.8198 7.38465 17.7539 6.5835 19.7707 6.5835H60.8332" stroke="black" stroke-width="5" stroke-linecap="round" stroke-linejoin="round"/>
</svg>
