<svg width="61" height="61" viewBox="0 0 61 61" fill="none" xmlns="http://www.w3.org/2000/svg">
<path d="M10.1387 49.425C10.1387 47.7444 10.8063 46.1327 11.9946 44.9444C13.1829 43.756 14.7946 43.0884 16.4752 43.0884H50.6924V5.06934H16.4752C14.7946 5.06934 13.1829 5.73693 11.9946 6.92526C10.8063 8.11359 10.1387 9.7253 10.1387 11.4059V49.425Z" fill="#F2AC02"/>
<path d="M11.9946 44.9444C10.8063 46.1327 10.1387 47.7444 10.1387 49.425C10.1387 51.1055 10.8063 52.7172 11.9946 53.9056C13.1829 55.0939 14.7946 55.7615 16.4752 55.7615H50.6924V43.0884H16.4752C14.7946 43.0884 13.1829 43.756 11.9946 44.9444Z" fill="#FFF6E8"/>
<path d="M10.1387 49.425C10.1387 47.7444 10.8063 46.1327 11.9946 44.9444C13.1829 43.756 14.7946 43.0884 16.4752 43.0884H50.6924M10.1387 49.425C10.1387 51.1055 10.8063 52.7172 11.9946 53.9056C13.1829 55.0939 14.7946 55.7615 16.4752 55.7615H50.6924M10.1387 49.425V11.4059C10.1387 9.7253 10.8063 8.11359 11.9946 6.92526C13.1829 5.73693 14.7946 5.06934 16.4752 5.06934H50.6924M50.6924 43.0884V5.06934M50.6924 43.0884V55.7615M50.6924 5.06934V55.7615" stroke="#F2AC02" stroke-width="3" stroke-linecap="round" stroke-linejoin="round"/>
</svg>
