<svg width="73" height="73" viewBox="0 0 73 73" fill="none" xmlns="http://www.w3.org/2000/svg">
<path d="M12.1665 59.3127C12.1665 57.2959 12.9677 55.3618 14.3937 53.9357C15.8198 52.5097 17.7539 51.7085 19.7707 51.7085H60.8332V6.0835H19.7707C17.7539 6.0835 15.8198 6.88465 14.3937 8.31071C12.9677 9.73676 12.1665 11.6709 12.1665 13.6877V59.3127Z" fill="#3A3383"/>
<path d="M12.1665 59.3127C12.1665 57.2959 12.9677 55.3618 14.3937 53.9357C15.8198 52.5097 17.7539 51.7085 19.7707 51.7085H60.8332V6.0835M12.1665 59.3127C12.1665 61.3294 12.9677 63.2636 14.3937 64.6896C15.8198 66.1157 17.7539 66.9168 19.7707 66.9168H60.8332V6.0835M12.1665 59.3127V13.6877C12.1665 11.6709 12.9677 9.73676 14.3937 8.31071C15.8198 6.88465 17.7539 6.0835 19.7707 6.0835H60.8332" stroke="#3A3383" stroke-width="5" stroke-linecap="round" stroke-linejoin="round"/>
</svg>
