<svg width="61" height="61" viewBox="0 0 61 61" fill="none" xmlns="http://www.w3.org/2000/svg">
<path d="M10.1387 49.4247C10.1387 47.7442 10.8063 46.1325 11.9946 44.9441C13.1829 43.7558 14.7946 43.0882 16.4752 43.0882H50.6924V5.06909H16.4752C14.7946 5.06909 13.1829 5.73669 11.9946 6.92501C10.8063 8.11334 10.1387 9.72506 10.1387 11.4056V49.4247Z" fill="#5CCBDB"/>
<path d="M11.9946 44.9441C10.8063 46.1325 10.1387 47.7442 10.1387 49.4247C10.1387 51.1053 10.8063 52.717 11.9946 53.9053C13.1829 55.0936 14.7946 55.7612 16.4752 55.7612H50.6924V43.0882H16.4752C14.7946 43.0882 13.1829 43.7558 11.9946 44.9441Z" fill="#FFE29B"/>
<path d="M10.1387 49.4247C10.1387 47.7442 10.8063 46.1324 11.9946 44.9441C13.1829 43.7558 14.7946 43.0882 16.4752 43.0882H50.6924M10.1387 49.4247C10.1387 51.1053 10.8063 52.717 11.9946 53.9053C13.1829 55.0936 14.7946 55.7612 16.4752 55.7612H50.6924M10.1387 49.4247V11.4056C10.1387 9.72506 10.8063 8.11334 11.9946 6.92501C13.1829 5.73669 14.7946 5.06909 16.4752 5.06909H50.6924M50.6924 43.0882V5.06909M50.6924 43.0882V55.7612M50.6924 5.06909V55.7612" stroke="#5CCBDB" stroke-width="3" stroke-linecap="round" stroke-linejoin="round"/>
</svg>
