<svg width="93" height="168" viewBox="0 0 93 168" fill="none" xmlns="http://www.w3.org/2000/svg">
<path d="M37.557 0.214192C28.2118 2.29091 30.5481 20.2674 32.3003 28.8338C27.433 24.3559 17.4648 15.5169 11.8577 20.6568C4.26475 27.617 16.9197 41.0994 23.5392 47.5242C17.3091 47.3295 2.51268 44.0197 0.176391 53.949C-2.1599 63.8782 19.256 62.9048 32.3004 61.542C17.1145 72.6393 15.1201 82.0938 18.2825 84.9049C23.5392 89.5774 37.3623 72.4447 42.2295 65.6305C41.4508 78.0907 35.2206 101.843 42.2295 103.011C50.4784 104.386 51.5747 81.9845 48.6544 65.6305C54.6898 72.25 66.3447 88.3463 70.8492 86.6571C80.1943 83.1526 63.8403 66.604 57.9995 61.542C68.1235 61.9314 86.6191 63.8782 89.5395 56.2853C92.7469 47.9463 76.6899 46.3561 69.681 44.6038C75.6051 43.1228 98.9548 33.8031 89.5395 25.3294C85.5796 21.7655 70.0704 28.2498 65.5925 30.5861C66.3713 25.1347 72.0173 13.0638 65.5925 11.8957C59.1677 10.7275 54.3004 20.0727 51.5747 25.3294C48.849 15.2055 48.0703 -2.12211 37.557 0.214192Z" fill="#F5CF88"/>
<path fill-rule="evenodd" clip-rule="evenodd" d="M47.3298 74.213C45.6583 67.2552 44.6237 62.9483 45.5289 62.3524C50.0266 59.3913 55.2381 79.8653 56.1703 84.5767C58.2661 95.1686 59.9678 108.524 59.9678 116.488C60.2036 115.652 61.4588 113.464 62.5951 112.028C66.406 107.213 80.2775 95.09 85.9581 100.347C89.6458 103.759 85.9581 112.557 78.3652 116.488C65.8719 127.798 61.342 123.239 61.342 123.239L59.6747 124.878C59.6747 124.878 59.0907 135.391 57.9225 144.736C56.7544 154.081 54.9707 164.779 52.6659 164.011C50.9136 163.427 52.6659 149.409 52.6659 149.409C52.6659 149.409 55.5908 131.182 54.546 116.488C53.3101 99.1066 49.6868 84.0243 47.3298 74.213ZM74.2766 113.196C78.1949 110.162 81.6312 105.421 81.2855 104.435C80.8534 103.203 68.2503 110.575 65.9966 114.41C63.7429 118.245 63.6693 118.825 64.9018 118.393C65.0899 118.327 65.4252 118.249 65.8719 118.146C67.7664 117.71 71.106 115.652 74.2766 113.196Z" fill="#CBC4C4"/>
</svg>
