<svg width="298" height="81" viewBox="0 0 298 81" fill="none" xmlns="http://www.w3.org/2000/svg">
<path d="M252.47 2.97411C248.22 4.03151 248.303 8.48143 249.657 10.5742C244.969 11.2351 239.443 15.5308 238.093 21.4787C236.527 28.3776 241.475 30.731 244.969 30.731C248.095 30.731 251.533 27.757 253.096 26.4353C253.616 29.2991 254.033 34.6962 259.347 35.6875C263.287 36.4226 267.682 32.7136 268.724 30.731C271.016 32.6034 274.35 35.6875 278.413 35.6875C282.833 35.6875 284.456 31.502 284.977 29.4092C288.102 30.731 295.947 32.548 297.792 22.8004C299.042 16.1917 294.353 14.6496 292.165 13.8786C292.374 12.3365 293.728 8.59158 291.228 7.26982C287.873 5.49651 281.434 7.26982 279.351 9.25245C279.142 7.82055 279.783 3.4729 275.6 2.64368C270.599 1.65234 266.848 6.71909 264.348 9.25245C261.847 6.82923 257.784 1.65236 252.47 2.97411Z" fill="#E8DEF8"/>
<path d="M269.05 37.3379C268.05 30.4648 266.237 25.4421 264.675 26.4335C264.675 27.2045 265.3 29.7378 265.3 29.7378C265.3 29.7378 267.175 35.3553 269.05 53.8599C269.952 62.7552 269.676 77.9819 271.551 77.321C272.773 76.8901 272.176 58.486 272.176 57.4947C272.176 56.7016 274.885 52.9787 276.239 51.2164C277.073 51.6569 279.24 52.5381 281.24 52.5381C283.741 52.5381 287.804 50.225 287.804 49.2337C287.804 48.2424 285.616 49.2337 283.428 50.225C281.678 51.0181 278.531 50.5555 277.177 50.225C278.219 49.1236 280.49 46.6563 281.24 45.5989C282.178 44.2771 281.24 44.6076 279.052 45.5989C277.302 46.392 273.218 51.6569 271.551 54.5207L269.05 37.3379Z" fill="#B5DAE2"/>
<path d="M115.275 26.0184C121.109 31.9658 132.297 36.911 138.051 37.9707C152.513 35.2779 165.356 21.0693 164.365 14.1352C163.571 8.57828 155.119 6.54076 151.487 12.1541C152.307 9.82035 153.138 4.29543 147.855 3.23881C142.572 2.18219 141.08 8.14323 139.27 10.503C138.969 7.42806 136.012 0.00312274 131.015 0.927366C126.019 1.85161 126.96 10.6143 127.053 14.1352C124.482 12.6614 120.119 7.86147 115.275 10.503C108.892 13.9841 110.141 20.7846 115.275 26.0184Z" fill="#FEC8DF"/>
<path d="M137.225 34.51C136.651 37.8282 136.869 46.0802 138.102 55.2964C139.335 64.5127 142.27 73.0895 143.861 73.3119C145.85 73.5899 144.408 69.0032 142.949 63.7569C141.319 57.8982 139.5 45.6806 139.309 38.4188C139.118 31.157 137.83 31.0056 137.225 34.51Z" fill="#B6DBE4"/>
<path d="M192.274 20.7887C189.503 19.0835 185.816 14.0105 188.118 9.91802C190.995 4.8024 203.465 -1.27239 204.104 5.44186C204.47 9.27856 203.678 14.181 203.465 15.6731C206.023 12.0495 213.504 5.69763 217.852 7.99966C223.288 10.8772 223.955 17.5822 222.968 20.1493C221.369 24.3057 211.671 22.7071 206.662 23.0268C211.138 27.2898 219.131 35.1764 215.614 42.2104C213.069 47.302 205.289 45.6331 201.866 42.2104C198.59 38.9345 198.916 35.6587 199.497 34.1914C198.449 36.4529 195.948 39.9179 192.274 38.6934C187.479 37.0948 180.764 26.2241 183.002 23.0268C185.597 19.3196 190.463 20.1493 192.274 20.7887Z" fill="#F9A092"/>
<path d="M198.669 50.2033C197.74 32.2384 200.411 23.1073 200.579 26.7873L200.587 27.1828C200.587 32.2985 200.587 52.7613 201.546 58.8361C202.045 61.994 203.038 66.8286 203.145 67.7883C203.997 65.7635 206.15 62.0977 207.941 62.3527C209.731 62.6085 209.966 64.0587 209.859 64.9113C212.63 64.0587 217.852 64.3992 216.573 68.7473C214.975 74.1826 209.539 74.5031 207.941 74.5031C205.832 74.5029 205.809 72.7979 206.023 72.2648C205.277 72.2648 203.913 72.0729 204.424 71.3059C205.063 70.3467 209.219 64.9114 207.941 64.9113C206.662 64.9125 204.424 69.7065 204.105 70.9855C203.785 72.2643 203.254 72.2566 202.825 73.5432C202.506 74.5023 201.182 74.1066 200.587 74.5031C198.669 75.7816 198.221 75.0782 196.431 74.8225C194.193 74.5027 189.397 71.305 191.315 68.7473C193.239 66.1841 196.75 70.6658 196.75 68.4279C196.75 66.1998 200.553 65.5557 200.587 65.55C199.948 63.4181 199.013 56.8443 198.669 50.2033ZM193.873 70.0266C192.969 70.0266 193.553 71.305 194.832 71.9445C195.855 72.4561 196.751 72.3714 197.07 72.2648C196.218 71.3057 195.152 70.0266 193.873 70.0266ZM213.373 69.9064C215.094 68.1854 213.054 65.7521 210.817 67.3498C209.347 68.4005 208.261 70.5452 208.261 71.5041C208.58 72.4628 211.456 71.8238 213.373 69.9064ZM200.268 69.3869C200.268 69.3768 200.264 67.4694 199.308 67.7883C198.349 68.1086 199.308 70.9842 199.947 71.3049C200.586 71.6243 200.268 69.3914 200.268 69.3869Z" fill="#BACAC0"/>
<path d="M7.88156 40.0318C7.88156 40.0318 5.60879 30.7303 8.76541 29.0888C13.3951 26.6898 16.3834 37.2119 16.3834 37.2119C16.3834 37.2119 19.8346 33.5502 23.3279 37.1277C25.0115 38.8533 25.6007 43.9881 25.6007 43.9881C25.6007 43.9881 33.7658 43.5251 34.3971 53.3737C35.1126 64.5692 24.7589 65.7056 24.7589 65.7056C24.7589 65.7056 17.4777 79.3843 6.02967 70.5457C0.937 66.6315 4.64076 59.5186 4.64076 59.5186C4.64076 59.5186 0.347767 56.0253 0.0110614 52.3215C-0.19938 49.67 2.66262 48.7861 2.66262 48.7861C2.66262 48.7861 -1.25158 43.8618 0.810738 40.6631C3.25185 36.9173 7.88156 40.0318 7.88156 40.0318Z" fill="#B5C9BD"/>
<path d="M13.1847 45.377C13.1847 45.377 11.2066 39.5267 12.8901 40.9156C13.5214 41.4207 14.4474 44.4931 14.4474 44.4931C14.4474 44.4931 16.4255 42.1783 16.8043 42.6833C17.2252 43.1884 15.0787 45.5033 14.9103 46.0504C14.742 46.5976 18.109 53.7946 18.109 53.7946C18.109 53.7946 19.2033 50.7643 20.2555 50.8064C20.8869 50.8485 18.6983 54.5522 18.9508 55.3519C18.9929 55.5623 21.0973 59.9816 25.0957 64.948C28.6311 69.3673 33.3029 72.4397 32.5032 72.2292C31.8719 72.103 29.2624 71.3875 23.7909 65.0743C21.3077 62.2123 17.7302 55.857 17.7302 55.857C17.7302 55.857 13.2268 54.3838 13.9423 53.7104C14.6578 53.037 17.0568 54.5101 17.0568 54.5101L13.7319 46.6817C13.7319 46.6817 10.2806 45.882 10.6594 45.1245C10.9961 44.3669 13.1847 45.377 13.1847 45.377Z" fill="#B1A7A6"/>
<path d="M69.7955 5.78693C65.628 6.71304 66.6698 14.7297 67.4512 18.5499C65.2807 16.553 60.8353 12.6112 58.3348 14.9033C54.9487 18.0073 60.5922 24.0198 63.5442 26.885C60.7659 26.7981 54.1674 25.3221 53.1255 29.7501C52.0837 34.1781 61.6341 33.744 67.4513 33.1362C60.6791 38.0851 59.7897 42.3014 61.2 43.555C63.5442 45.6387 69.7086 37.9983 71.8792 34.9595C71.5319 40.5162 68.7536 51.1086 71.8792 51.6295C75.5578 52.2426 76.0467 42.2526 74.7444 34.9595C77.4359 37.9115 82.6334 45.0897 84.6422 44.3364C88.8097 42.7735 81.5165 35.3936 78.9119 33.1362C83.4266 33.3099 91.6748 34.1781 92.9772 30.792C94.4075 27.0732 87.2469 26.364 84.1212 25.5826C86.7631 24.9221 97.1759 20.766 92.9772 16.9871C91.2112 15.3978 84.2949 18.2895 82.298 19.3313C82.6452 16.9003 85.1631 11.5172 82.298 10.9963C79.4328 10.4754 77.2622 14.6429 76.0467 16.9871C74.8312 12.4723 74.4839 4.74505 69.7955 5.78693Z" fill="#F5CF88"/>
<path fill-rule="evenodd" clip-rule="evenodd" d="M74.1537 38.7868C73.4083 35.684 72.9469 33.7633 73.3505 33.4975C75.3563 32.177 77.6804 41.3075 78.0961 43.4085C79.0307 48.132 79.7896 54.0878 79.7896 57.6393C79.8948 57.2667 80.4545 56.2908 80.9613 55.6506C82.6607 53.5035 88.8467 48.097 91.38 50.4412C93.0246 51.963 91.38 55.8863 87.9939 57.6393C82.4225 62.6832 80.4024 60.6501 80.4024 60.6501L79.6589 61.3809C79.6589 61.3809 79.3984 66.0693 78.8775 70.2368C78.3566 74.4044 77.5611 79.1749 76.5333 78.8323C75.7519 78.5719 76.5333 72.3206 76.5333 72.3206C76.5333 72.3206 77.8377 64.1922 77.3717 57.6393C76.8206 49.8882 75.2048 43.1622 74.1537 38.7868ZM86.1706 56.1715C87.918 54.8182 89.4504 52.7042 89.2963 52.2645C89.1035 51.7148 83.4832 55.0027 82.4782 56.7129C81.4731 58.4231 81.4403 58.6815 81.9899 58.4888C82.0738 58.4594 82.2233 58.4249 82.4225 58.379C83.2674 58.1843 84.7567 57.2666 86.1706 56.1715Z" fill="#CBC4C4"/>
</svg>
